<svg xmlns="http://www.w3.org/2000/svg" enable-background="new 0 0 512 512" viewBox="0 0 512 512"><path fill="#5c77ff" d="M262.9,326.7c-3.4,0-6.7-0.5-9.8-1.6c-1.6-0.5-2.8-1.8-3.2-3.4c-0.4-1.6-0.1-3.3,1-4.6l0.3-0.3
			c0.1-0.1,0.3-0.3,0.4-0.4l13.9-13.1l-0.5-8.6l-7.4-0.7l-14.9,14.7c-1.2,1.2-2.9,1.7-4.6,1.4c-1.7-0.4-3.1-1.6-3.6-3.2
			c-1.2-3.3-1.8-6.7-1.8-10.2c0-16.5,13.6-29.9,30.3-29.9c1.4,0,2.7,0.1,4.1,0.3l47.9-47.2c-0.4-1.9-0.6-3.8-0.6-5.7
			c0-16.5,13.6-29.9,30.3-29.9c3.4,0,6.7,0.5,9.8,1.6c1.6,0.5,2.8,1.8,3.2,3.4s0.1,3.3-1,4.6l-0.3,0.3c-0.1,0.1-0.3,0.3-0.4,0.4
			l-13.9,13.1l0.5,8.6l7.4,0.7l14.9-14.7c1.2-1.2,2.9-1.7,4.6-1.4c1.7,0.4,3.1,1.6,3.6,3.2c1.2,3.3,1.8,6.7,1.8,10.2
			c0,16.5-13.6,29.9-30.3,29.9c-0.7,0-1.5,0-2.2-0.1l-49.5,48.7c0.2,1.3,0.3,2.7,0.3,4C293.2,313.3,279.6,326.7,262.9,326.7z
			 M255.6,283.8c0.2,0,0.3,0,0.5,0l14,1.3c2.5,0.2,4.4,2.2,4.5,4.7l0.9,15.2c0.1,1.5-0.5,2.9-1.6,3.9l-8,7.5
			c9.7-1.5,17.2-9.7,17.2-19.7c0-1.5-0.2-3-0.5-4.5c-0.4-1.7,0.1-3.5,1.4-4.7l53-52.2c1.1-1.1,2.7-1.6,4.3-1.4
			c1.1,0.2,2.2,0.3,3.3,0.3c10.4,0,19.1-7.8,20.2-17.7l-9.4,9.3c-1,1-2.5,1.6-4,1.4l-14-1.3c-2.5-0.2-4.4-2.2-4.5-4.7L332,206
			c-0.1-1.5,0.5-2.9,1.6-3.9l8-7.5c-9.7,1.5-17.2,9.7-17.2,19.7c0,2,0.3,3.9,0.9,5.8c0.6,1.8,0.1,3.7-1.3,5l-31.5,31l0,0l-20.3,20
			c-1.2,1.2-3,1.7-4.6,1.3c-1.5-0.3-3.1-0.5-4.6-0.5c-10.4,0-19.1,7.8-20.2,17.7l9.4-9.3C253,284.3,254.3,283.8,255.6,283.8z
			 M288.9,252.5L288.9,252.5L288.9,252.5z"/><path fill="#5c77ff" d="M284.1,51v89.5L179.9,244.7c-6,6-6,15.7,0,21.7l104.2,104.1V430h-222V51H284.1z" enable-background="new" opacity=".3"/><polygon fill="#5c77ff" points="246.4 17.5 223.9 40 120.4 40 100.1 19.7"/><path fill="#5c77ff" d="M308.7 95.5c-.3 0-.7 0-1-.1-1.3-.3-2.7-.4-4-.4-2.8 0-5-2.2-5-5s2.2-5 5-5c2 0 4 .2 5.9.6 2.7.5 4.5 3.2 3.9 5.9C313.1 93.9 311.1 95.5 308.7 95.5zM325.2 415c-1.3 0-2.6-.5-3.5-1.5-2-2-2-5.1 0-7.1l7-7c2-2 5.1-2 7.1 0 2 2 2 5.1 0 7.1l-7 7C327.7 414.6 326.4 415 325.2 415zM346.2 394c-1.3 0-2.6-.5-3.5-1.5-2-2-2-5.1 0-7.1l7-7c2-2 5.1-2 7.1 0 2 2 2 5.1 0 7.1l-7 7C348.8 393.5 347.5 394 346.2 394zM367.2 373c-1.3 0-2.6-.5-3.5-1.5-2-2-2-5.1 0-7.1l7-7c2-2 5.1-2 7.1 0 2 2 2 5.1 0 7.1l-7 7C369.8 372.5 368.5 373 367.2 373zM388.3 351.9c-1.3 0-2.6-.5-3.5-1.5-2-2-2-5.1 0-7.1l7-7c2-2 5.1-2 7.1 0 2 2 2 5.1 0 7.1l-7 7C390.8 351.5 389.5 351.9 388.3 351.9zM409.3 330.9c-1.3 0-2.6-.5-3.5-1.5-2-2-2-5.1 0-7.1l7-7c2-2 5.1-2 7.1 0 2 2 2 5.1 0 7.1l-7 7C411.8 330.4 410.6 330.9 409.3 330.9zM430.3 309.9c-1.3 0-2.6-.5-3.5-1.5-2-2-2-5.1 0-7.1l7-7c2-2 5.1-2 7.1 0 2 2 2 5.1 0 7.1l-7 7C432.9 309.4 431.6 309.9 430.3 309.9zM451.4 288.9c-1.3 0-2.6-.5-3.5-1.5-2-2-2-5.1 0-7.1l7-7c2-2 5.1-2 7.1 0 2 2 2 5.1 0 7.1l-7 7C453.9 288.4 452.6 288.9 451.4 288.9zM468.8 265.4c-.3 0-.6 0-1-.1-2.7-.5-4.5-3.2-3.9-5.9.3-1.3.4-2.6.4-3.9 0-1.3-.1-2.7-.4-4-.5-2.7 1.2-5.3 3.9-5.9 2.7-.5 5.3 1.2 5.9 3.9.4 1.9.6 3.9.6 5.9 0 2-.2 3.9-.6 5.9C473.2 263.8 471.1 265.4 468.8 265.4zM458.3 239.1c-1.3 0-2.6-.5-3.5-1.5l-7-7c-2-2-2-5.1 0-7.1 2-2 5.1-2 7.1 0l7 7c2 2 2 5.1 0 7.1C460.9 238.6 459.6 239.1 458.3 239.1zM437.3 218.1c-1.3 0-2.6-.5-3.5-1.5l-7-7c-2-2-2-5.1 0-7.1 2-2 5.1-2 7.1 0l7 7c2 2 2 5.1 0 7.1C439.9 217.6 438.6 218.1 437.3 218.1zM416.3 197.1c-1.3 0-2.6-.5-3.5-1.5l-7-7c-2-2-2-5.1 0-7.1 2-2 5.1-2 7.1 0l7 7c2 2 2 5.1 0 7.1C418.8 196.6 417.6 197.1 416.3 197.1zM395.2 176c-1.3 0-2.6-.5-3.5-1.5l-7-7c-2-2-2-5.1 0-7.1 2-2 5.1-2 7.1 0l7 7c2 2 2 5.1 0 7.1C397.8 175.6 396.5 176 395.2 176zM374.2 155c-1.3 0-2.6-.5-3.5-1.5l-7-7c-2-2-2-5.1 0-7.1 2-2 5.1-2 7.1 0l7 7c2 2 2 5.1 0 7.1C376.8 154.5 375.5 155 374.2 155zM353.2 134c-1.3 0-2.6-.5-3.5-1.5l-7-7c-2-2-2-5.1 0-7.1 2-2 5.1-2 7.1 0l7 7c2 2 2 5.1 0 7.1C355.7 133.5 354.5 134 353.2 134zM332.1 112.9c-1.3 0-2.6-.5-3.5-1.5l-7-7c-2-2-2-5.1 0-7.1 2-2 5.1-2 7.1 0l7 7c2 2 2 5.1 0 7.1C334.7 112.5 333.4 112.9 332.1 112.9zM303.8 426c-2.8 0-5-2.2-5-5s2.2-5 5-5c1.3 0 2.7-.1 4-.4 2.7-.5 5.3 1.2 5.9 3.9.5 2.7-1.2 5.3-3.9 5.9C307.7 425.8 305.7 426 303.8 426z"/><path fill="#354b87" d="M434.7,237.6l-113-113c-3.6-3.6-8-6-12.9-6.9V37.8c0-14-11.4-25.3-25.3-25.3H63.1c-14,0-25.3,11.4-25.3,25.3
		v436.3c0,14,11.4,25.3,25.3,25.3h220.3c14,0,25.3-11.4,25.3-25.3v-80.8c4.9-1,9.3-3.3,12.9-6.9l113-113
		C444.5,263.5,444.5,247.5,434.7,237.6z M298.8,474.2c0,8.5-6.9,15.3-15.3,15.3H63.1c-8.5,0-15.3-6.9-15.3-15.3V37.8
		c0-8.5,6.9-15.3,15.3-15.3h220.3c8.5,0,15.3,6.9,15.3,15.3v79.8c0,0,0,0,0,0c-0.5,0.1-1.1,0.2-1.6,0.4c-0.1,0-0.2,0.1-0.4,0.1
		c-1.1,0.3-2.1,0.7-3.1,1.1c-0.1,0-0.2,0.1-0.3,0.1c-1,0.5-2,1-2.9,1.6c-0.1,0.1-0.2,0.1-0.3,0.2c-0.9,0.6-1.8,1.3-2.7,2
		c-0.1,0.1-0.2,0.2-0.3,0.3c-0.4,0.4-0.8,0.7-1.2,1.2l-1.8,1.8l-33.1,33H142.9c-1.3,0-2.6,0.5-3.5,1.5L112.3,188H99
		c-2.8,0-5,2.2-5,5s2.2,5,5,5h15.3c1.3,0,2.6-0.5,3.5-1.5l27.1-27.1h96l-14.1,14.1H163c-2.8,0-5,2.2-5,5s2.2,5,5,5h53.9l-44.1,44.1
		c-3.3,3.3-5.5,7.3-6.6,11.5c-0.2,0.6-0.3,1.3-0.4,1.9H94.5c-2.8,0-5,2.2-5,5c0,2.8,2.2,5,5,5H166c1,4.6,3.3,8.9,6.8,12.4l11.1,11.1
		H147c-1.3,0-2.6,0.5-3.5,1.5l-23,23H94.5c-2.8,0-5,2.2-5,5s2.2,5,5,5h28c1.3,0,2.6-0.5,3.5-1.5l23-23h44.9l55.3,55.3h-62.2
		l-17.4-17.4c-0.9-0.9-2.2-1.5-3.5-1.5h-20.9c-2.8,0-5,2.2-5,5s2.2,5,5,5h18.8l17.4,17.4c0.9,0.9,2.2,1.5,3.5,1.5h74.3l11.8,11.8
		l13,13l1.8,1.8c0.4,0.4,0.8,0.8,1.2,1.1c0.1,0.1,0.2,0.2,0.3,0.3c0.9,0.7,1.8,1.4,2.7,2c0.1,0.1,0.2,0.1,0.3,0.2
		c0.9,0.6,1.9,1.1,2.9,1.6c0.1,0.1,0.2,0.1,0.4,0.2c0.5,0.2,1,0.4,1.5,0.6c0,0,0,0,0,0c0.5,0.2,1,0.3,1.6,0.5c0.1,0,0.3,0.1,0.4,0.1
		c0.5,0.1,1,0.3,1.5,0.4c0,0,0,0,0.1,0V474.2z M427.6,266.3l-113,113c-2.9,2.9-6.8,4.5-10.8,4.5c-4.1,0-8-1.6-10.8-4.5l-8.8-8.9
		L199.5,286c0,0,0,0,0,0l-2.9-2.9l-16.7-16.7c-0.7-0.7-1.3-1.5-1.9-2.3c-4-6-3.4-14.1,1.9-19.4l104.2-104.1l8.8-8.9
		c1.3-1.3,2.8-2.3,4.5-3.1c2-0.9,4.1-1.4,6.4-1.4c0,0,0,0,0,0c4.1,0,7.9,1.6,10.8,4.5l113,113C433.6,250.6,433.6,260.4,427.6,266.3z
		"/><circle cx="94.5" cy="193" r="13.1" fill="#5c77ff"/><circle cx="155" cy="188.6" r="13.1" fill="#5c77ff"/><circle cx="94.5" cy="255.5" r="13.1" fill="#5c77ff"/><circle cx="94.5" cy="312.6" r="13.1" fill="#5c77ff"/><circle cx="145.2" cy="336.6" r="13.1" fill="#5c77ff"/><circle cx="173.3" cy="458.5" r="18" fill="#5c77ff"/></svg>